M48
; DRILL file {KiCad 8.0.4} date 2024-08-24T09:36:17+0200
; FORMAT={-:-/ absolute / metric / decimal}
; #@! TF.CreationDate,2024-08-24T09:36:17+02:00
; #@! TF.GenerationSoftware,Kicad,Pcbnew,8.0.4
; #@! TF.FileFunction,Plated,1,2,PTH
FMAT,2
METRIC
; #@! TA.AperFunction,Plated,PTH,ViaDrill
T1C0.300
; #@! TA.AperFunction,Plated,PTH,ComponentDrill
T2C0.300
; #@! TA.AperFunction,Plated,PTH,ComponentDrill
T3C1.000
; #@! TA.AperFunction,Plated,PTH,ComponentDrill
T4C1.400
%
G90
G05
T1
X32.8Y-49.0
X36.0Y-47.6
X36.0Y-50.4
X37.2Y-53.2
X38.0Y-40.24
X38.2Y-57.3
X40.8Y-80.2
X41.45Y-55.04
X44.8Y-39.44
X44.8Y-46.4
X45.0Y-43.4
X45.35Y-57.14
X45.6Y-41.24
X46.6Y-55.84
X47.0Y-41.24
X58.8Y-54.84
X59.0Y-39.24
X59.0Y-39.94
X59.4Y-42.694
X62.4Y-46.2
X62.6Y-57.84
X63.0Y-39.24
X63.0Y-39.94
X64.0Y-43.948
X65.0Y-41.24
X65.6Y-77.8
X66.2Y-63.4
X66.2Y-66.4
X66.765Y-41.24
X67.2Y-49.14
X67.2Y-60.34
X67.8Y-76.0
X67.8Y-79.6
X69.8Y-63.2
X69.8Y-77.8
X70.4Y-70.4
X71.2Y-70.4
X71.3Y-47.9
X72.0Y-63.2
X72.0Y-76.0
X72.0Y-79.6
X72.326Y-46.23
X73.0Y-45.8
X74.6Y-77.8
X75.8Y-44.0
X80.0Y-50.4
X81.0Y-49.0
X81.6Y-67.2
X82.0Y-60.4
X84.0Y-46.0
X84.2Y-58.0
X84.4Y-65.2
X84.4Y-69.4
X88.5Y-50.75
X91.4Y-47.8
X92.0Y-54.2
X92.8Y-51.2
X92.8Y-80.2
X93.25Y-46.25
X94.4Y-50.8
X94.4Y-58.6
X94.4Y-61.0
X94.4Y-63.8
X95.4Y-51.8
X95.8Y-39.4
X95.8Y-45.2
X96.2Y-53.6
X97.2Y-61.0
X98.2Y-46.2
T2
X49.35Y-46.42
X49.35Y-47.82
X50.05Y-45.72
X50.05Y-47.12
X50.05Y-48.52
X50.725Y-46.42
X50.725Y-47.82
X51.45Y-45.72
X51.45Y-47.12
X51.45Y-48.52
X52.15Y-46.42
X52.15Y-47.82
T3
X35.05Y-56.14
X35.05Y-58.68
X35.05Y-61.22
X35.05Y-63.76
X35.05Y-66.3
X46.44Y-60.64
X48.98Y-60.64
X51.52Y-60.64
X54.06Y-60.64
X56.6Y-60.64
X62.47Y-60.6
X62.47Y-64.8
X65.0Y-49.16
X65.0Y-51.7
X65.0Y-54.24
X65.01Y-60.6
X65.01Y-64.8
X68.32Y-68.4
X70.86Y-68.4
X72.0Y-51.18
X72.0Y-53.72
X72.0Y-56.26
X72.0Y-58.8
X73.4Y-68.4
T4
X83.8Y-48.5
X84.17Y-75.3
X88.88Y-48.5
X89.25Y-75.3
M30
