G04 #@! TF.GenerationSoftware,KiCad,Pcbnew,8.0.4*
G04 #@! TF.CreationDate,2024-08-24T09:35:18+02:00*
G04 #@! TF.ProjectId,letitrain,6c657469-7472-4616-996e-2e6b69636164,rev?*
G04 #@! TF.SameCoordinates,Original*
G04 #@! TF.FileFunction,Paste,Top*
G04 #@! TF.FilePolarity,Positive*
%FSLAX46Y46*%
G04 Gerber Fmt 4.6, Leading zero omitted, Abs format (unit mm)*
G04 Created by KiCad (PCBNEW 8.0.4) date 2024-08-24 09:35:18*
%MOMM*%
%LPD*%
G01*
G04 APERTURE LIST*
G04 Aperture macros list*
%AMRoundRect*
0 Rectangle with rounded corners*
0 $1 Rounding radius*
0 $2 $3 $4 $5 $6 $7 $8 $9 X,Y pos of 4 corners*
0 Add a 4 corners polygon primitive as box body*
4,1,4,$2,$3,$4,$5,$6,$7,$8,$9,$2,$3,0*
0 Add four circle primitives for the rounded corners*
1,1,$1+$1,$2,$3*
1,1,$1+$1,$4,$5*
1,1,$1+$1,$6,$7*
1,1,$1+$1,$8,$9*
0 Add four rect primitives between the rounded corners*
20,1,$1+$1,$2,$3,$4,$5,0*
20,1,$1+$1,$4,$5,$6,$7,0*
20,1,$1+$1,$6,$7,$8,$9,0*
20,1,$1+$1,$8,$9,$2,$3,0*%
G04 Aperture macros list end*
%ADD10RoundRect,0.237500X0.250000X0.237500X-0.250000X0.237500X-0.250000X-0.237500X0.250000X-0.237500X0*%
%ADD11RoundRect,0.237500X-0.237500X0.250000X-0.237500X-0.250000X0.237500X-0.250000X0.237500X0.250000X0*%
%ADD12RoundRect,0.150000X-0.150000X0.512500X-0.150000X-0.512500X0.150000X-0.512500X0.150000X0.512500X0*%
%ADD13RoundRect,0.237500X0.237500X-0.250000X0.237500X0.250000X-0.237500X0.250000X-0.237500X-0.250000X0*%
%ADD14R,1.500000X0.900000*%
%ADD15R,0.900000X1.500000*%
%ADD16R,0.900000X0.900000*%
%ADD17RoundRect,0.250000X0.337500X0.475000X-0.337500X0.475000X-0.337500X-0.475000X0.337500X-0.475000X0*%
%ADD18RoundRect,0.250000X-0.450000X0.350000X-0.450000X-0.350000X0.450000X-0.350000X0.450000X0.350000X0*%
%ADD19RoundRect,0.250000X-0.475000X0.337500X-0.475000X-0.337500X0.475000X-0.337500X0.475000X0.337500X0*%
%ADD20RoundRect,0.250000X-1.500000X-0.650000X1.500000X-0.650000X1.500000X0.650000X-1.500000X0.650000X0*%
%ADD21RoundRect,0.237500X-0.300000X-0.237500X0.300000X-0.237500X0.300000X0.237500X-0.300000X0.237500X0*%
%ADD22RoundRect,0.250000X1.500000X0.550000X-1.500000X0.550000X-1.500000X-0.550000X1.500000X-0.550000X0*%
%ADD23RoundRect,0.150000X-0.150000X0.725000X-0.150000X-0.725000X0.150000X-0.725000X0.150000X0.725000X0*%
%ADD24RoundRect,0.250000X0.450000X-0.350000X0.450000X0.350000X-0.450000X0.350000X-0.450000X-0.350000X0*%
%ADD25RoundRect,0.150000X0.150000X-0.587500X0.150000X0.587500X-0.150000X0.587500X-0.150000X-0.587500X0*%
%ADD26RoundRect,0.237500X0.300000X0.237500X-0.300000X0.237500X-0.300000X-0.237500X0.300000X-0.237500X0*%
%ADD27RoundRect,0.237500X-0.250000X-0.237500X0.250000X-0.237500X0.250000X0.237500X-0.250000X0.237500X0*%
%ADD28RoundRect,0.250000X-1.250000X-0.550000X1.250000X-0.550000X1.250000X0.550000X-1.250000X0.550000X0*%
%ADD29RoundRect,0.250000X0.475000X-0.337500X0.475000X0.337500X-0.475000X0.337500X-0.475000X-0.337500X0*%
%ADD30RoundRect,0.250000X-0.337500X-0.475000X0.337500X-0.475000X0.337500X0.475000X-0.337500X0.475000X0*%
%ADD31RoundRect,0.237500X-0.237500X0.300000X-0.237500X-0.300000X0.237500X-0.300000X0.237500X0.300000X0*%
%ADD32RoundRect,0.237500X0.237500X-0.300000X0.237500X0.300000X-0.237500X0.300000X-0.237500X-0.300000X0*%
%ADD33RoundRect,0.100000X0.225000X0.100000X-0.225000X0.100000X-0.225000X-0.100000X0.225000X-0.100000X0*%
G04 APERTURE END LIST*
D10*
X41425000Y-43015000D03*
X39600000Y-43015000D03*
D11*
X88500000Y-61500000D03*
X88500000Y-63325000D03*
X93800000Y-52175000D03*
X93800000Y-54000000D03*
X92800000Y-47800000D03*
X92800000Y-49625000D03*
D12*
X75800000Y-45925000D03*
X74850000Y-45925000D03*
X73900000Y-45925000D03*
X73900000Y-48200000D03*
X74850000Y-48200000D03*
X75800000Y-48200000D03*
D13*
X40000000Y-59112500D03*
X40000000Y-57287500D03*
D14*
X43500000Y-39400000D03*
X43500000Y-40670000D03*
X43500000Y-41940000D03*
X43500000Y-43210000D03*
X43500000Y-44480000D03*
X43500000Y-45750000D03*
X43500000Y-47020000D03*
X43500000Y-48290000D03*
X43500000Y-49560000D03*
X43500000Y-50830000D03*
X43500000Y-52100000D03*
X43500000Y-53370000D03*
X43500000Y-54640000D03*
X43500000Y-55910000D03*
D15*
X46540000Y-57160000D03*
X47810000Y-57160000D03*
X49080000Y-57160000D03*
X50350000Y-57160000D03*
X51620000Y-57160000D03*
X52890000Y-57160000D03*
X54160000Y-57160000D03*
X55430000Y-57160000D03*
X56700000Y-57160000D03*
X57970000Y-57160000D03*
D14*
X61000000Y-55910000D03*
X61000000Y-54640000D03*
X61000000Y-53370000D03*
X61000000Y-52100000D03*
X61000000Y-50830000D03*
X61000000Y-49560000D03*
X61000000Y-48290000D03*
X61000000Y-47020000D03*
X61000000Y-45750000D03*
X61000000Y-44480000D03*
X61000000Y-43210000D03*
X61000000Y-41940000D03*
X61000000Y-40670000D03*
X61000000Y-39400000D03*
D16*
X49350000Y-45720000D03*
X49350000Y-47120000D03*
X49350000Y-48520000D03*
X50750000Y-45720000D03*
X50750000Y-47120000D03*
X50750000Y-48520000D03*
X52150000Y-45720000D03*
X52150000Y-47120000D03*
X52150000Y-48520000D03*
D17*
X74075000Y-65000000D03*
X72000000Y-65000000D03*
D18*
X79400000Y-47000000D03*
X79400000Y-49000000D03*
D10*
X73800000Y-41600000D03*
X71975000Y-41600000D03*
D19*
X41075000Y-44902500D03*
X41075000Y-46977500D03*
D20*
X84400000Y-67200000D03*
X89400000Y-67200000D03*
D11*
X77600000Y-44975000D03*
X77600000Y-46800000D03*
D10*
X73800000Y-43400000D03*
X71975000Y-43400000D03*
D21*
X34275000Y-49000000D03*
X36000000Y-49000000D03*
D22*
X77400000Y-77800000D03*
X72000000Y-77800000D03*
D23*
X100000000Y-51850000D03*
X98730000Y-51850000D03*
X97460000Y-51850000D03*
X96190000Y-51850000D03*
X96190000Y-57000000D03*
X97460000Y-57000000D03*
X98730000Y-57000000D03*
X100000000Y-57000000D03*
D24*
X91500000Y-63500000D03*
X91500000Y-61500000D03*
D25*
X89600000Y-58000000D03*
X91500000Y-58000000D03*
X90550000Y-56125000D03*
D26*
X96062500Y-59800000D03*
X94337500Y-59800000D03*
D27*
X83250000Y-61500000D03*
X85075000Y-61500000D03*
D28*
X63400000Y-77800000D03*
X67800000Y-77800000D03*
D29*
X39825000Y-41290000D03*
X39825000Y-39215000D03*
D27*
X81425000Y-63400000D03*
X83250000Y-63400000D03*
D30*
X67725000Y-65000000D03*
X69800000Y-65000000D03*
D11*
X97000000Y-47575000D03*
X97000000Y-49400000D03*
D13*
X94500000Y-49325000D03*
X94500000Y-47500000D03*
D11*
X99400000Y-47575000D03*
X99400000Y-49400000D03*
X93200000Y-56175000D03*
X93200000Y-58000000D03*
D31*
X74800000Y-50537500D03*
X74800000Y-52262500D03*
D32*
X41700000Y-40865000D03*
X41700000Y-39140000D03*
D31*
X79400000Y-43200000D03*
X79400000Y-44925000D03*
D33*
X35900000Y-53500000D03*
X35900000Y-52850000D03*
X35900000Y-52200000D03*
X34000000Y-52200000D03*
X34000000Y-53500000D03*
M02*
